<?xml version="1.0" encoding="utf-8"?>
<!-- Generator: Adobe Illustrator 24.3.0, SVG Export Plug-In . SVG Version: 6.00 Build 0)  -->
<svg version="1.1" id="Layer_1" xmlns="http://www.w3.org/2000/svg" xmlns:xlink="http://www.w3.org/1999/xlink" x="0px" y="0px"
	 viewBox="0 0 40 40" style="enable-background:new 0 0 40 40;" xml:space="preserve">
<style type="text/css">
	.st0{fill:currentColor;}
</style>
<path id="icon_x2F_40_x2F_Calendario" class="st0" d="M13,2v3h14V2h2v3h6c2.7,0,4.9,2.1,5,4.8l0,0.2v22c0,2.8-2.2,5-5,5l0,0H5
	c-2.8,0-5-2.2-5-5l0,0V10c0-2.8,2.2-5,5-5l0,0h6V2H13z M38,15H2v17c0,1.6,1.2,2.9,2.8,3L5,35h30c1.7,0,3-1.3,3-3l0,0V15z M11,7H5
	c-1.7,0-3,1.3-3,3l0,0v3h36v-3c0-1.6-1.2-2.9-2.8-3L35,7h-6v3h-2V7H13v3h-2V7z"/>
</svg>
