<?xml version="1.0" encoding="utf-8"?>
<!-- Generator: Adobe Illustrator 24.3.0, SVG Export Plug-In . SVG Version: 6.00 Build 0)  -->
<svg version="1.1" id="Layer_1" xmlns="http://www.w3.org/2000/svg" xmlns:xlink="http://www.w3.org/1999/xlink" x="0px" y="0px"
	 viewBox="0 0 20 20" style="enable-background:new 0 0 20 20;" xml:space="preserve">
<style type="text/css">
	.st0{fill:currentColor;}
</style>
<path id="icon_x2F_20_x2F_Camera" class="st0" d="M12.5,1c0.3,0,0.6,0.2,0.8,0.4L15,4h3c1.1,0,2,0.9,2,2v11c0,1.1-0.9,2-2,2H2
	c-1.1,0-2-0.9-2-2V6c0-1.1,0.9-2,2-2h3l1.7-2.6C6.9,1.2,7.2,1,7.5,1H12.5z M10,6c-3.1,0-5.7,2.5-5.7,5.7s2.5,5.7,5.7,5.7
	s5.7-2.5,5.7-5.7S13.1,6,10,6z M10,8c2,0,3.7,1.6,3.7,3.7S12,15.3,10,15.3s-3.7-1.6-3.7-3.7S8,8,10,8z M17,5c-0.6,0-1,0.4-1,1
	s0.4,1,1,1s1-0.4,1-1S17.6,5,17,5z"/>
</svg>
