<svg xmlns="http://www.w3.org/2000/svg" viewBox="0 0 40 40"><path d="M24.6 3c1.2 0 2.3.7 2.8 1.9L28.7 8H35c2.7 0 4.9 2.1 5 4.8V32c0 2.8-2.2 5-5 5H5c-2.8 0-5-2.2-5-5V13c0-2.8 2.2-5 5-5h6.3l1.2-3.1C13 3.8 14 3.1 15.2 3H24.6zM11.9 19H2v13c0 1.7 1.3 3 3 3h30c1.7 0 3-1.3 3-3V19h-9.9c.6 1.1.9 2.4.9 3.7v.3c0 5-4 9-9 9s-9-4-9-9c0-1.4.3-2.8.9-4zm8.1-3c-3.9 0-7 3.1-7 7s3.1 7 7 7 7-3.1 7-7-3.1-7-7-7zm0 2c2.7 0 4.9 2.1 5 4.8v.2h-2c0-1.6-1.2-2.9-2.8-3H20v-2zm4.6-13h-9.3c-.4 0-.8.2-.9.6L12.7 10H5c-1.7 0-3 1.3-3 3v4h11.3c1.6-1.8 4-3 6.7-3s5.1 1.2 6.7 3H38v-4c0-1.6-1.2-2.9-2.8-3h-7.9l-1.7-4.4c-.2-.4-.5-.6-1-.6zM8 12v3H5v-3h3z" fill="currentColor"/></svg>