<svg xmlns="http://www.w3.org/2000/svg" width="22" height="34" viewBox="0 0 22 34">
  <g id="icon_40_RelojArena" data-name="icon/40/RelojArena" transform="translate(-6 -1)">
    <path id="Combined-Shape" d="M20,13H18V4a1,1,0,0,0-1.993-.117L16,4v9H14V6a1,1,0,0,0-1.993-.117L12,6V16.045l.105.009c4.04.413,5.818,3.153,5.892,7.181l0,.264H16c0-3.462-1.306-5.408-4.75-5.5L11,18H10V12a1,1,0,0,0-1.993-.117L8,12V23a5,5,0,0,0,4.783,5L13,28h1v7H12V29.928l-.182-.027A7,7,0,0,1,6,23.241L6,23V12a3,3,0,0,1,4-2.829V6a3,3,0,0,1,4.106-2.789,3,3,0,0,1,5.789,0,3,3,0,0,1,4.1,2.613L24,6v.171a3,3,0,0,1,3.995,2.653L28,9V24a6,6,0,0,1-4.9,5.9l-.1.016V35H21V28h1a4,4,0,0,0,4-3.8l0-.2V9a1,1,0,0,0-1.993-.117L24,9v6H22V6a1,1,0,0,0-1.993-.117L20,6Z" fill="#121237" fill-rule="evenodd"/>
  </g>
</svg>
