<?xml version="1.0" encoding="UTF-8"?>
<svg width="32px" height="32px" viewBox="0 0 32 32" version="1.1" xmlns="http://www.w3.org/2000/svg" xmlns:xlink="http://www.w3.org/1999/xlink">
    <title>0B26D52E-5814-4000-A146-10890EF9AB3E</title>
    <g id="Styles" stroke="none" stroke-width="1" fill="none" fill-rule="evenodd">
        <g id="Styles-Iconos" transform="translate(-80.000000, -592.000000)" fill="#121237">
            <g id="icon/40/Ayuda-Copy-18" transform="translate(80.000000, 592.000000)">
                <path d="M18.6778783,4.80508214 C18.4379597,4.97517344 18.2081838,5.1592785 17.9897604,5.35646633 L16,7.152 L14.0102396,5.35646633 C10.9356468,2.58079229 6.19306854,2.82311381 3.4173945,5.89770659 C3.15447739,6.18893786 2.91481854,6.50035123 2.70062475,6.8290792 C0.0495114725,10.8978017 0.823067996,16.3010735 4.50928392,19.4625157 L16,29.3174006 L27.4907161,19.4625157 C31.176932,16.3010735 31.9504885,10.8978017 29.2993752,6.8290792 C27.0380841,3.35862542 22.3915868,2.37840543 18.921133,4.63969658 L18.6778783,4.80508214 Z M27.7660478,8.14782298 C29.6973168,11.3475057 29.0453523,15.4943979 26.1886993,17.9443746 L16,26.681 L5.81130072,17.9443746 C2.88663211,15.4360651 2.27288714,11.1490727 4.37629832,7.9209208 C4.5333741,7.67985311 4.70912429,7.45148283 4.90193059,7.23791278 C6.93742919,4.98320664 10.4153273,4.80550381 12.6700334,6.84100241 L16,9.84722222 L19.3299666,6.84100241 C19.5435366,6.64819612 19.7719069,6.47244593 20.0129746,6.31537015 C22.5579794,4.65708647 25.965418,5.37591598 27.6237017,7.9209208 L27.7660478,8.14782298 Z" id="Path-6-Copy-2"></path>
            </g>
        </g>
    </g>
</svg>