<?xml version="1.0" encoding="UTF-8"?>
<svg width="32px" height="32px" viewBox="0 0 32 32" version="1.1" xmlns="http://www.w3.org/2000/svg" xmlns:xlink="http://www.w3.org/1999/xlink">
    <title>72454F5A-03B7-4DD3-8212-18060081CA32</title>
    <g id="Styles" stroke="none" stroke-width="1" fill="none" fill-rule="evenodd">
        <g id="Styles-Iconos" transform="translate(-248.000000, -592.000000)" fill="#FFFFFF">
            <g id="icon/40/Ayuda-Copy-21" transform="translate(248.000000, 592.000000)">
                <path d="M16,1.71772957 L16.3899632,2.03072957 L31.624695,14.2191312 C32.055957,14.5641407 32.1258784,15.1934331 31.7808688,15.624695 C31.4623985,16.022783 30.901699,16.1129831 30.4781227,15.8531452 L30.375305,15.7808688 L28.9999632,14.6807296 L29,28 C29,29.5976809 27.75108,30.9036609 26.1762728,30.9949073 L26,31 L22.5,31 C20.8431458,31 19.5,29.6568542 19.5,28 L19.5,28 L19.5,22 C19.5,21.4477153 19.0522847,21 18.5,21 L18.5,21 L13.5,21 C12.9477153,21 12.5,21.4477153 12.5,22 L12.5,22 L12.5,28 C12.5,29.6568542 11.1568542,31 9.5,31 L9.5,31 L6,31 C4.34314575,31 3,29.6568542 3,28 L3,28 L2.99996318,14.6797296 L1.62469505,15.7808688 C1.22660711,16.0993392 0.659783172,16.0642589 0.303575687,15.7177783 L0.219131191,15.624695 C-0.0993391615,15.2266071 -0.0642589047,14.6597832 0.282221689,14.3035757 L0.375304952,14.2191312 L15.6179632,2.02472957 L16,1.71772957 Z M8,3 L8,4.8 L4,8 L4,3 L8,3 Z" id="Combined-Shape"></path>
            </g>
        </g>
    </g>
</svg>