<?xml version="1.0" encoding="utf-8"?>
<!-- Generator: Adobe Illustrator 24.3.0, SVG Export Plug-In . SVG Version: 6.00 Build 0)  -->
<svg version="1.1" id="Layer_1" xmlns="http://www.w3.org/2000/svg" xmlns:xlink="http://www.w3.org/1999/xlink" x="0px" y="0px"
	 viewBox="0 0 28 28" style="enable-background:new 0 0 28 28;" xml:space="preserve">
<style type="text/css">
	.st0{fill:#121237;}
</style>
<path id="icon_x2F_28_x2F_Registro" class="st0" d="M26,4.8L26,5v5c0,0.6-0.4,1-1,1c-0.5,0-0.9-0.4-1-0.9l0-0.1V5
	c0-0.5-0.4-0.9-0.9-1L23,4H6C5.5,4,5.1,4.4,5,4.9L5,5v18c0,0.5,0.4,0.9,0.9,1L6,24h4c0.6,0,1,0.4,1,1c0,0.5-0.4,0.9-0.9,1L10,26
	l-4,0c-1.6,0-2.9-1.2-3-2.8L3,23L3,5c0-1.6,1.2-2.9,2.8-3L6,2h17C24.6,2,25.9,3.2,26,4.8z M26,15.6c0.8,0.8,0.8,2,0,2.8l0,0L17.4,27
	H13v-4.4l8.6-8.6c0.8-0.8,2-0.8,2.8,0l0,0L26,15.6z M14,18c0,0.5-0.4,0.9-0.9,1L13,19H8c-0.6,0-1-0.4-1-1c0-0.5,0.4-0.9,0.9-1L8,17
	h5C13.6,17,14,17.4,14,18z M22,19.6L20.4,18L15,23.4V25l1.6,0L22,19.6z M19,13c0,0.5-0.4,0.9-0.9,1L18,14H8c-0.6,0-1-0.4-1-1
	c0-0.5,0.4-0.9,0.9-1L8,12h10C18.6,12,19,12.4,19,13z M22,8c0,0.5-0.4,0.9-0.9,1L21,9H8C7.4,9,7,8.6,7,8c0-0.5,0.4-0.9,0.9-1L8,7h13
	C21.6,7,22,7.4,22,8z M24.6,17L23,15.4l-1.2,1.2l1.6,1.6L24.6,17z"/>
</svg>
