<?xml version="1.0" encoding="utf-8"?>
<!-- Generator: Adobe Illustrator 24.3.0, SVG Export Plug-In . SVG Version: 6.00 Build 0)  -->
<svg version="1.1" id="Layer_1" xmlns="http://www.w3.org/2000/svg" xmlns:xlink="http://www.w3.org/1999/xlink" x="0px" y="0px"
	 viewBox="0 0 36 36" style="enable-background:new 0 0 36 36;" xml:space="preserve">
<style type="text/css">
	.st0{fill:#121237;}
</style>
<path id="icon_x2F_36_x2F_RelojArena" class="st0" d="M4,34v-2h2v-4.5c0-3,1.7-5.8,4.3-7.2l0.3-0.1l2.7-1.3c0.5-0.2,0.8-0.7,0.8-1.3
	s-0.3-1-0.8-1.3l0,0l-2.7-1.3C7.8,13.5,6,10.6,6,7.5l0,0V3H4V1h28v2h-2v4.5c0,3-1.7,5.8-4.3,7.2l-0.3,0.1l-2.7,1.3
	C22.3,16.5,22,17,22,17.5s0.3,1,0.8,1.3l0,0l2.7,1.3c2.8,1.4,4.6,4.2,4.6,7.4l0,0V32h2v2H4z M28,3H8v4.5c0,2.3,1.2,4.4,3.2,5.5l0,0
	l0.2,0.1l2.7,1.3c1.2,0.6,1.9,1.8,1.9,3.1s-0.7,2.5-1.9,3.1l0,0l-2.7,1.3C9.3,23,8,25.1,8,27.5l0,0V32h20v-4.5
	c0-2.3-1.2-4.4-3.2-5.5l0,0l-0.2-0.1l-2.7-1.3C20.7,20,20,18.8,20,17.5s0.7-2.5,1.9-3.1l0,0l2.7-1.3C26.7,12,28,9.9,28,7.5l0,0V3z
	 M25,23c0.5,1.8,1,3.5,1,5l0,0v2h-2v-2l0-0.3c0.1-1.3-0.3-2.5-1-3.7l0,0l1-1H25z M26,5v2c0,1.5-0.5,3.2-1,5h-1l-1-1
	c0.7-1.2,1.1-2.4,1-3.7L24,7V5H26z"/>
</svg>
