<?xml version="1.0" encoding="UTF-8"?>
<svg width="24px" height="24px" viewBox="0 0 24 24" version="1.1" xmlns="http://www.w3.org/2000/svg" xmlns:xlink="http://www.w3.org/1999/xlink">
    <title>033AFD8E-5B3F-4E3C-886D-FBEFC42DE8D6</title>
    <g id="Styles" stroke="none" stroke-width="1" fill="none" fill-rule="evenodd">
        <g id="Styles-Iconos" transform="translate(-80.000000, -828.000000)" fill="currentColor">
            <g id="icon/40/Ayuda-Copy-32" transform="translate(80.000000, 828.000000)">
                <path d="M4.83221558,2.1422823 L22.2708293,11.1107122 C22.7619694,11.3632985 22.9553554,11.9662079 22.7027691,12.457348 C22.6073652,12.6428556 22.4563368,12.7938839 22.2708293,12.8892878 L4.83221558,21.8577177 C4.34107549,22.110304 3.7381661,21.916918 3.48557976,21.4257779 C3.38293378,21.2261885 3.35041389,20.9978714 3.39325218,20.7775602 L4.9056805,12.9995688 L13.5,13 L13.6166211,12.9932723 C14.1139598,12.9355072 14.5,12.5128358 14.5,12 C14.5,11.4477153 14.0522847,11 13.5,11 L13.5,11 L4.9056805,10.9995688 L3.39325218,3.22243976 C3.28783777,2.68030855 3.6418667,2.15536911 4.18399791,2.04995471 C4.40430907,2.00711643 4.63262617,2.03963632 4.83221558,2.1422823 Z" id="Combined-Shape"></path>
            </g>
        </g>
    </g>
</svg>