<?xml version="1.0" encoding="UTF-8"?>
<svg width="32px" height="32px" viewBox="0 0 32 32" version="1.1" xmlns="http://www.w3.org/2000/svg" xmlns:xlink="http://www.w3.org/1999/xlink">
    <title>E1781275-D35E-47FF-9DA5-73C1BF6F914F</title>
    <g id="Styles" stroke="none" stroke-width="1" fill="none" fill-rule="evenodd">
        <g id="Styles-Iconos" transform="translate(-192.000000, -592.000000)" fill="#121237">
            <g id="icon/40/Ayuda-Copy-20" transform="translate(192.000000, 592.000000)">
                <path d="M3,3 L9,3 L8.99996318,7.31837515 L16,1.71937515 L31.624695,14.2191312 C32.055957,14.5641407 32.1258784,15.1934331 31.7808688,15.624695 C31.4623985,16.022783 30.901699,16.1129831 30.4781227,15.8531452 L30.375305,15.7808688 L28.9999632,14.6803752 L29,28 C29,29.5976809 27.75108,30.9036609 26.1762728,30.9949073 L26,31 L21,31 C19.4023191,31 18.0963391,29.75108 18.0050927,28.1762728 L18,28 L18,22 C18,21.4871642 17.6139598,21.0644928 17.1166211,21.0067277 L17,21 L15,21 C14.4871642,21 14.0644928,21.3860402 14.0067277,21.8833789 L14,22 L14,28 C14,29.5976809 12.75108,30.9036609 11.1762728,30.9949073 L11,31 L6,31 C4.40231912,31 3.09633912,29.75108 3.00509269,28.1762728 L3,28 L2.99996318,14.6793752 L1.62469505,15.7808688 C1.22660711,16.0993392 0.659783172,16.0642589 0.303575687,15.7177783 L0.219131191,15.624695 C-0.0993391615,15.2266071 -0.0642589047,14.6597832 0.282221689,14.3035757 L0.375304952,14.2191312 L2.99996318,12.1183752 L3,3 Z M16,4.28 L4.99996318,13.0793752 L5,28 C5,28.5128358 5.38604019,28.9355072 5.88337887,28.9932723 L6,29 L11,29 C11.5128358,29 11.9355072,28.6139598 11.9932723,28.1166211 L12,28 L12,22 C12,20.4023191 13.24892,19.0963391 14.8237272,19.0050927 L15,19 L17,19 C18.5976809,19 19.9036609,20.24892 19.9949073,21.8237272 L20,22 L20,28 C20,28.5128358 20.3860402,28.9355072 20.8833789,28.9932723 L21,29 L26,29 C26.5128358,29 26.9355072,28.6139598 26.9932723,28.1166211 L27,28 L26.9999632,13.0803752 L16,4.28 Z M4.99996318,10.5183752 L6.99996318,8.91837515 L7,5 L5,5 L4.99996318,10.5183752 Z" id="Combined-Shape"></path>
            </g>
        </g>
    </g>
</svg>