<?xml version="1.0" encoding="utf-8"?>
<!-- Generator: Adobe Illustrator 24.3.0, SVG Export Plug-In . SVG Version: 6.00 Build 0)  -->
<svg version="1.1" id="Layer_1" xmlns="http://www.w3.org/2000/svg" xmlns:xlink="http://www.w3.org/1999/xlink" x="0px" y="0px"
	 viewBox="0 0 40 40" style="enable-background:new 0 0 40 40;" xml:space="preserve">
<style type="text/css">
	.st0{fill:currentColor;}
</style>
<path id="icon_x2F_40_x2F_Info" class="st0" d="M20,2c9.9,0,18,8.1,18,18s-8.1,18-18,18S2,29.9,2,20S10.1,2,20,2z M20,3.8
	C11.1,3.8,3.8,11.1,3.8,20S11.1,36.2,20,36.2S36.2,28.9,36.2,20S28.9,3.8,20,3.8z M20,14c0.5,0,1,0.4,1,0.9l0,0l0.9,16
	c0,0,0,0,0,0.1c0,0.6-0.4,1-1,1l0,0h-1.9c0,0,0,0-0.1,0c-0.6,0-1-0.5-0.9-1.1l0,0l0.9-16c0-0.5,0.5-0.9,1-0.9l0,0H20z M20,7.9
	c0.5,0,1,0.2,1.4,0.6C21.8,8.9,22,9.4,22,10c0,0.6-0.2,1.1-0.6,1.5C21.1,11.8,20.6,12,20,12c-0.6,0-1.1-0.2-1.5-0.6S18,10.5,18,10
	c0-0.6,0.2-1.1,0.6-1.5S19.5,7.9,20,7.9z"/>
</svg>
