<?xml version="1.0" encoding="UTF-8"?>
<svg width="28px" height="28px" viewBox="0 0 28 28" version="1.1" xmlns="http://www.w3.org/2000/svg" xmlns:xlink="http://www.w3.org/1999/xlink">
    <title>23167780-3500-4D95-B1D6-235203F4877A</title>
    <g id="Styles" stroke="none" stroke-width="1" fill="none" fill-rule="evenodd">
        <g id="Styles-Iconos" transform="translate(-132.000000, -712.000000)" fill="#121237">
            <g id="icon/40/Ayuda-Copy-29" transform="translate(132.000000, 712.000000)">
                <path d="M23,3 C25.209139,3 27,4.790861 27,7 L27,21 C27,23.209139 25.209139,25 23,25 L5,25 C2.790861,25 1,23.209139 1,21 L1,7 C1,4.790861 2.790861,3 5,3 L23,3 Z M16.909,15.13 L14.7280494,17.4468088 C14.3614406,17.8361591 13.7605854,17.8639699 13.3605129,17.530241 L13.2719506,17.4468088 L11.09,15.13 L4.31528466,22.8797187 C4.48429479,22.9412983 4.66394912,22.9807335 4.85073766,22.9945143 L5,23 L23,23 C23.2407833,23 23.4716286,22.9574501 23.6854268,22.8794593 L16.909,15.13 Z M3.00548574,6.85073766 L3,7 L3,21 C3,21.1078964 3.00854396,21.2137972 3.02499223,21.3170628 L9.712,13.667 L3.04310962,6.58501257 C3.02482739,6.67165233 3.01215356,6.76035989 3.00548574,6.85073766 Z M24.9568605,6.58487084 L18.287,13.667 L24.9750307,21.3169186 C24.9838135,21.2617526 24.9903405,21.2058347 24.9945143,21.1492623 L25,21 L25,7 C25,6.85766116 24.9851306,6.71879524 24.9568605,6.58487084 Z M23,5 L5,5 C4.78688432,5 4.58155401,5.03333317 4.38893828,5.09507032 L14,15.301 L23.6103375,5.09483836 C23.463317,5.0477775 23.308895,5.017263 23.1492623,5.00548574 L23,5 Z" id="Combined-Shape"></path>
            </g>
        </g>
    </g>
</svg>