<svg width="24" height="24" viewBox="0 0 24 24" fill="none" xmlns="http://www.w3.org/2000/svg">
<g id="icon/24/Microfono">
<rect width="24" height="24" fill="none"/>
<path id="Combined Shape" fill-rule="evenodd" clip-rule="evenodd" d="M12 0C9.79086 0 8 1.79086 8 4V11C8 13.2091 9.79086 15 12 15C14.2091 15 16 13.2091 16 11V4C16 1.79086 14.2091 0 12 0ZM6 11V10H4V11L4.00381 11.2492C4.12517 15.216 7.13433 18.4561 11 18.9381V22H8L7.88338 22.0067C7.38604 22.0645 7 22.4872 7 23C7 23.5523 7.44772 24 8 24H16L16.1166 23.9933C16.614 23.9355 17 23.5128 17 23C17 22.4477 16.5523 22 16 22H13V18.9381C16.9463 18.446 20 15.0796 20 11V10H18V11L17.9959 11.2249C17.8776 14.4344 15.2384 17 12 17C8.68629 17 6 14.3137 6 11Z" fill="white"/>
</g>
</svg>
