<?xml version="1.0" encoding="UTF-8"?>
<svg width="20px" height="20px" viewBox="0 0 20 20" version="1.1" xmlns="http://www.w3.org/2000/svg" xmlns:xlink="http://www.w3.org/1999/xlink">
    <title>FD357191-145F-4435-88A4-E27868E3EC68</title>
    <g id="Styles" stroke="none" stroke-width="1" fill="none" fill-rule="evenodd">
        <g id="Styles-Iconos" transform="translate(-872.000000, -1068.000000)" fill="currentColor">
            <g id="icon/40/Ayuda-Copy-63" transform="translate(872.000000, 1068.000000)">
                <path d="M7,3 C7.55228475,3 8,3.44771525 8,4 L8,16 C8,16.5522847 7.55228475,17 7,17 L6,17 C5.44771525,17 5,16.5522847 5,16 L5,4 C5,3.44771525 5.44771525,3 6,3 L7,3 Z M14,3 C14.5522847,3 15,3.44771525 15,4 L15,16 C15,16.5522847 14.5522847,17 14,17 L13,17 C12.4477153,17 12,16.5522847 12,16 L12,4 C12,3.44771525 12.4477153,3 13,3 L14,3 Z" id="Combined-Shape"></path>
            </g>
        </g>
    </g>
</svg>