<?xml version="1.0" encoding="utf-8"?>
<!-- Generator: Adobe Illustrator 24.3.0, SVG Export Plug-In . SVG Version: 6.00 Build 0)  -->
<svg version="1.1" id="Layer_1" xmlns="http://www.w3.org/2000/svg" xmlns:xlink="http://www.w3.org/1999/xlink" x="0px" y="0px"
	 viewBox="0 0 40 40" style="enable-background:new 0 0 40 40;" xml:space="preserve">
<style type="text/css">
	.st0{fill:currentColor;}
</style>
<path id="icon_x2F_40_x2F_Lugar" class="st0" d="M20,2c8.3,0,15,6.7,15,15c0,3.9-2.4,8.4-7.3,13.7L27,31.5c-0.3,0.4-0.7,0.7-1.1,1.1
	l-0.8,0.7c-0.1,0.1-0.3,0.3-0.4,0.4L24,34.5c-0.1,0.1-0.3,0.3-0.4,0.4l-0.8,0.8l-0.9,0.8c-0.3,0.3-0.6,0.5-0.9,0.8L20,38
	c-0.6-0.5-1.2-1.1-1.8-1.6l-0.9-0.8l-0.8-0.8c-0.1-0.1-0.3-0.3-0.4-0.4l-0.8-0.8c-0.1-0.1-0.3-0.3-0.4-0.4l-0.8-0.7
	c-0.4-0.4-0.7-0.7-1.1-1.1l-0.7-0.7C7.4,25.4,5,20.9,5,17C5,8.7,11.7,2,20,2z M20,4C12.8,4,7,9.8,7,17c0,3.1,2.1,7.1,6.2,11.8
	l0.6,0.7c0.1,0.1,0.2,0.2,0.3,0.3l0.7,0.7c0.3,0.4,0.7,0.7,1.1,1.1l0.7,0.7l0.8,0.7l0.8,0.7l0.8,0.8c0.1,0.1,0.3,0.3,0.4,0.4
	l0.5,0.4l0.1-0.1c0.3-0.3,0.6-0.5,0.9-0.8l0.8-0.8l0.8-0.7l0.8-0.7l0.7-0.7c0.4-0.4,0.7-0.7,1.1-1.1l0.7-0.7
	c0.1-0.1,0.2-0.2,0.3-0.3l0.6-0.7c4.1-4.5,6.1-8.4,6.2-11.5l0-0.2C33,9.8,27.2,4,20,4z M20,11c3.3,0,6,2.7,6,6s-2.7,6-6,6
	s-6-2.7-6-6S16.7,11,20,11z M20,13c-2.2,0-4,1.8-4,4s1.8,4,4,4s4-1.8,4-4S22.2,13,20,13z"/>
</svg>
