<?xml version="1.0" encoding="UTF-8"?>
<svg width="32px" height="32px" viewBox="0 0 32 32" version="1.1" xmlns="http://www.w3.org/2000/svg" xmlns:xlink="http://www.w3.org/1999/xlink">
    <title>489A2F40-7A99-49BA-B1B3-A1AA7030269E</title>
    <g id="Styles" stroke="none" stroke-width="1" fill="none" fill-rule="evenodd">
        <g id="Styles-Iconos" transform="translate(-472.000000, -592.000000)" fill="#FFFFFF">
            <g id="icon/40/Ayuda-Copy-25" transform="translate(472.000000, 592.000000)">
                <path d="M17,-5.68434189e-14 C24.1797017,-5.68434189e-14 30,5.82029825 30,13 L30,13 L30,19 C30,26.1797017 24.1797017,32 17,32 L17,32 L15,32 C7.82029825,32 2,26.1797017 2,19 L2,19 L2,13 C2,11.3251161 2.31673921,9.72421068 2.89358629,8.25391497 L2.87556392,8.23974479 L3.19378146,7.55129367 C3.21506539,7.50524673 3.23660029,7.45936046 3.25838418,7.41363631 C3.32421596,7.27497384 3.3929828,7.13708492 3.4641002,7.00061606 C3.48368234,6.96317264 3.50301787,6.92646325 3.52251702,6.88986756 C3.54894542,6.84028164 3.57599876,6.79035696 3.60336809,6.74063068 C3.6434673,6.66753299 3.68415133,6.5951711 3.72547948,6.52327817 C3.73089417,6.51431655 3.73611926,6.50526574 3.74135494,6.49622183 C3.78449835,6.42110154 3.82871167,6.34635231 3.87362176,6.27212715 C3.87884823,6.26429877 3.88372933,6.25626352 3.88861888,6.24823399 L3.87362176,6.27212715 C3.91220479,6.20835905 3.95130209,6.14497775 3.99090715,6.08198803 C4.02121856,6.03491233 4.05144944,5.9875863 4.08197703,5.94047037 C4.11464586,5.88872422 4.14797968,5.8379871 4.18164589,5.78751662 C4.19130749,5.7744996 4.20099048,5.76006426 4.2107016,5.74564944 L4.18164589,5.78751662 C5.1260202,4.37176378 6.33194382,3.16581437 7.72082787,2.22707316 C7.75186673,2.2064536 7.78229261,2.1860436 7.8128091,2.16575908 C7.84513752,2.14401689 7.87811405,2.12234739 7.91118995,2.10082735 C8.13566862,1.9547103 8.36466915,1.81532077 8.59817077,1.68294914 C8.62742954,1.66692504 8.65643775,1.65065522 8.68551086,1.63449538 C8.74243798,1.60218559 8.79981865,1.57080342 8.85745985,1.53984342 C8.88990608,1.52320991 8.92225239,1.50603982 8.95467499,1.48900455 C9.01251904,1.45771789 9.07084687,1.42758597 9.12942996,1.39788471 C9.14797042,1.38948084 9.16639257,1.38020991 9.18483828,1.37098212 L9.28292926,1.32133497 C10.5415095,0.704058575 11.9145026,0.284240121 13.3615232,0.102265026 C13.3696724,0.101855164 13.3783637,0.100765647 13.3870573,0.0996847682 L13.4839254,0.0874605072 C13.759752,0.0554236743 14.0382121,0.0320207188 14.3190281,0.0175289663 C14.3329159,0.0169455877 14.3462498,0.0162735635 14.3595881,0.0156217977 C14.5713807,0.00521531876 14.7850813,-2.84217094e-14 15,-2.84217094e-14 L15,-2.84217094e-14 Z M26.7793013,11.705735 C24.4950348,8.66004646 20.2664549,7.85636141 17.0240974,9.85165832 L17.0240974,9.85165832 L16.7456214,10.0177018 C12.9091731,12.2329744 8.16506301,12.0323852 4.54520771,9.57306408 C4.19114578,10.6509385 4,11.803147 4,13 L4,13 L4,19 C4,25.0751322 8.92486775,30 15,30 L15,30 L17,30 C23.0751322,30 28,25.0751322 28,19 L28,19 L28,13.333 Z M18.4452998,25.1679497 L19.5547002,26.8320503 C17.299349,28.3356177 14.9491887,28.3874649 12.687299,26.9875918 L12.4452998,26.8320503 L13.5547002,25.1679497 C15.1494633,26.2311251 16.6508228,26.2754241 18.2378022,25.3008466 L18.4452998,25.1679497 Z M21.4952999,13 C23.7044389,13 25.4952999,14.790861 25.4952999,17 C25.4952999,19.209139 23.7044389,21 21.4952999,21 C19.6317346,21 18.0658209,19.7256022 17.6215134,18.0007613 L16,18 L16,23 L14,23 L14.0016613,18.7187546 C13.3587703,20.0677435 11.9826151,21 10.3887197,21 C8.17958074,21 6.38871974,19.209139 6.38871974,17 C6.38871974,14.790861 8.17958074,13 10.3887197,13 C12.2526468,13 13.8188068,14.2748927 14.2627649,16.0002435 L17.6212547,16.0002435 C18.0652128,14.2748927 19.6313728,13 21.4952999,13 Z M10.3887197,15 C9.28415024,15 8.38871974,15.8954305 8.38871974,17 C8.38871974,18.1045695 9.28415024,19 10.3887197,19 C11.4932892,19 12.3887197,18.1045695 12.3887197,17 C12.3887197,15.8954305 11.4932892,15 10.3887197,15 Z M21.4952999,15 C20.3907304,15 19.4952999,15.8954305 19.4952999,17 C19.4952999,18.1045695 20.3907304,19 21.4952999,19 C22.5998694,19 23.4952999,18.1045695 23.4952999,17 C23.4952999,15.8954305 22.5998694,15 21.4952999,15 Z" id="Combined-Shape"></path>
            </g>
        </g>
    </g>
</svg>