<?xml version="1.0" encoding="UTF-8"?>
<svg width="32px" height="32px" viewBox="0 0 32 32" version="1.1" xmlns="http://www.w3.org/2000/svg" xmlns:xlink="http://www.w3.org/1999/xlink">
    <title>8ECC8F47-37F2-4C46-BC84-126E9E3813FE</title>
    <g id="Styles" stroke="none" stroke-width="1" fill="none" fill-rule="evenodd">
        <g id="Styles-Iconos" transform="translate(-416.000000, -592.000000)" fill="#121237">
            <g id="icon/40/Ayuda-Copy-24" transform="translate(416.000000, 592.000000)">
                <path d="M30,19 C30,26.1797017 24.1797017,32 17,32 L17,32 L15,32 C7.82029825,32 2,26.1797017 2,19 L2,19 L2,13 C2,11.3251161 2.31673921,9.72421068 2.89358629,8.25391497 L2.87556392,8.23974479 L3.19378146,7.55129367 C3.21506539,7.50524673 3.23660029,7.45936046 3.25838418,7.41363631 C3.32421596,7.27497384 3.3929828,7.13708492 3.4641002,7.00061606 C3.48368234,6.96317264 3.50301787,6.92646325 3.52251702,6.88986756 C3.54894542,6.84028164 3.57599876,6.79035696 3.60336809,6.74063068 C3.6434673,6.66753299 3.68415133,6.5951711 3.72547948,6.52327817 C3.73089417,6.51431655 3.73611926,6.50526574 3.74135494,6.49622183 C3.78449835,6.42110154 3.82871167,6.34635231 3.87362176,6.27212715 C3.87884823,6.26429877 3.88372933,6.25626352 3.88861888,6.24823399 L3.87362176,6.27212715 C3.91220479,6.20835905 3.95130209,6.14497775 3.99090715,6.08198803 C4.02121856,6.03491233 4.05144944,5.9875863 4.08197703,5.94047037 C4.11464586,5.88872422 4.14797968,5.8379871 4.18164589,5.78751662 C4.19130749,5.7744996 4.20099048,5.76006426 4.2107016,5.74564944 L4.18164589,5.78751662 C5.1260202,4.37176378 6.33194382,3.16581437 7.72082787,2.22707316 C7.75186673,2.2064536 7.78229261,2.1860436 7.8128091,2.16575908 C7.84513752,2.14401689 7.87811405,2.12234739 7.91118995,2.10082735 C8.13566862,1.9547103 8.36466915,1.81532077 8.59817077,1.68294914 C8.62742954,1.66692504 8.65643775,1.65065522 8.68551086,1.63449538 C8.74243798,1.60218559 8.79981865,1.57080342 8.85745985,1.53984342 C8.88990608,1.52320991 8.92225239,1.50603982 8.95467499,1.48900455 C9.01251904,1.45771789 9.07084687,1.42758597 9.12942996,1.39788471 C9.14797042,1.38948084 9.16639257,1.38020991 9.18483828,1.37098212 L9.28292926,1.32133497 C10.5415095,0.704058575 11.9145026,0.284240121 13.3615232,0.102265026 C13.3696724,0.101855164 13.3783637,0.100765647 13.3870573,0.0996847682 L13.4839254,0.0874605072 C13.759752,0.0554236743 14.0382121,0.0320207188 14.3190281,0.0175289663 C14.3329159,0.0169455877 14.3462498,0.0162735635 14.3595881,0.0156217977 C14.5713807,0.00521531876 14.7850813,-2.84217094e-14 15,-2.84217094e-14 L15,-2.84217094e-14 L17,-5.68434189e-14 C24.1797017,-5.68434189e-14 30,5.82029825 30,13 L30,13 Z M26.7793013,11.705735 C24.4950348,8.66004646 20.2664549,7.85636141 17.0240974,9.85165832 L17.0240974,9.85165832 L16.7456214,10.0177018 C12.9091731,12.2329744 8.16506301,12.0323852 4.54520771,9.57306408 C4.19114578,10.6509385 4,11.803147 4,13 L4,13 L4,19 C4,25.0751322 8.92486775,30 15,30 L15,30 L17,30 C23.0751322,30 28,25.0751322 28,19 L28,19 L28,13.333 Z M18.4452998,25.1679497 L19.5547002,26.8320503 C17.299349,28.3356177 14.9491887,28.3874649 12.687299,26.9875918 L12.4452998,26.8320503 L13.5547002,25.1679497 C15.1494633,26.2311251 16.6508228,26.2754241 18.2378022,25.3008466 L18.4452998,25.1679497 Z M21.4952999,13 C23.7044389,13 25.4952999,14.790861 25.4952999,17 C25.4952999,19.209139 23.7044389,21 21.4952999,21 C19.6317346,21 18.0658209,19.7256022 17.6215134,18.0007613 L16,18 L16,23 L14,23 L14.0016613,18.7187546 C13.3587703,20.0677435 11.9826151,21 10.3887197,21 C8.17958074,21 6.38871974,19.209139 6.38871974,17 C6.38871974,14.790861 8.17958074,13 10.3887197,13 C12.2526468,13 13.8188068,14.2748927 14.2627649,16.0002435 L17.6212547,16.0002435 C18.0652128,14.2748927 19.6313728,13 21.4952999,13 Z M10.3887197,15 C9.28415024,15 8.38871974,15.8954305 8.38871974,17 C8.38871974,18.1045695 9.28415024,19 10.3887197,19 C11.4932892,19 12.3887197,18.1045695 12.3887197,17 C12.3887197,15.8954305 11.4932892,15 10.3887197,15 Z M21.4952999,15 C20.3907304,15 19.4952999,15.8954305 19.4952999,17 C19.4952999,18.1045695 20.3907304,19 21.4952999,19 C22.5998694,19 23.4952999,18.1045695 23.4952999,17 C23.4952999,15.8954305 22.5998694,15 21.4952999,15 Z M17,2 L15,2 C14.9325986,2 14.8653389,2.00060621 14.7982258,2.00181346 C14.763021,2.00246723 14.7278241,2.00327308 14.6926603,2.00424529 L14.7982258,2.00181346 C14.7276904,2.00308228 14.6573172,2.00501502 14.5871119,2.00760568 L14.6926603,2.00424529 C14.5919364,2.00703011 14.4914844,2.01117987 14.3913249,2.01667939 L14.5871119,2.00760568 C14.4696015,2.01194197 14.3525619,2.01812156 14.2360212,2.02611637 L14.3913249,2.01667939 C14.2882239,2.02234043 14.1854329,2.02943168 14.0829746,2.03793658 L14.2360212,2.02611637 C14.1508444,2.03195959 14.0659341,2.03877247 13.9813013,2.04654405 L14.0829746,2.03793658 C13.9658081,2.04766239 13.8490768,2.05923685 13.7328144,2.07263519 L13.9813013,2.04654405 C13.8815147,2.05570717 13.7821138,2.06620304 13.6831167,2.0780137 L13.7328144,2.07263519 C13.6389437,2.08345307 13.5453787,2.09545995 13.4521373,2.10864279 L13.6831167,2.0780137 C13.5777585,2.09058327 13.4728575,2.10464203 13.3684354,2.12016834 L13.4521373,2.10864279 C13.3391747,2.1246139 13.2266872,2.14231102 13.1147063,2.16171097 L13.3684354,2.12016834 C13.2673654,2.13519623 13.166744,2.15159897 13.066591,2.16935691 L13.1147063,2.16171097 C12.7953114,2.21704405 12.480039,2.28623004 12.1696254,2.36873108 C12.1515454,2.3723631 12.1341654,2.37702496 12.1168025,2.38172826 L12.1696254,2.36873108 C11.3572308,2.58464749 10.5781166,2.89176403 9.845484,3.28043937 C9.83305556,3.28656643 9.82069429,3.29316572 9.80834713,3.2997879 L9.845484,3.28043937 C9.75640039,3.3276999 9.66800401,3.37616628 9.5803186,3.42582118 L9.80834713,3.2997879 C9.71810365,3.3481884 9.6286138,3.39781143 9.53989972,3.44863483 L9.5803186,3.42582118 C9.50210042,3.47011493 9.42444798,3.5153544 9.34737811,3.56152731 L9.53989972,3.44863483 C9.44904044,3.5006872 9.35899492,3.55399871 9.26978693,3.60854556 L9.34737811,3.56152731 C9.2785397,3.60276871 9.21016606,3.6447548 9.14226921,3.6874768 L9.26978693,3.60854556 C9.18293839,3.66164971 9.09688368,3.71592472 9.01164473,3.77134865 L9.14226921,3.6874768 C9.05307802,3.74359761 8.96470958,3.80098833 8.87719109,3.8596291 L9.01164473,3.77134865 C7.66728651,4.64547503 6.5258482,5.80538673 5.67345063,7.16496293 C5.65691332,7.18987371 5.64131811,7.2150091 5.62581828,7.24021705 L5.67345063,7.16496293 C5.57552089,7.32116111 5.48140623,7.47999468 5.39123724,7.64133306 L5.36,7.699 L5.56786906,7.84891189 C8.55928777,9.93804268 12.5126913,10.1344799 15.7111488,8.30545209 L15.7111488,8.30545209 L16.2312361,7.99665763 C19.8271797,5.93584595 24.2977106,6.50756719 27.2576499,9.25849363 L27.2576499,9.25849363 L27.3926107,9.38619533 C27.3546653,9.27705882 27.3150494,9.16870418 27.2737936,9.06116202 C27.2203436,8.92183245 27.1641305,8.78384245 27.1052303,8.64728332 C27.0851298,8.60067572 27.0645416,8.55384476 27.0436379,8.507186 L27.1052303,8.64728332 C27.0632066,8.5498522 27.0198151,8.45314945 26.97508,8.35719926 C26.9566693,8.31771111 26.9380304,8.27834915 26.9191656,8.23911635 L26.97508,8.35719926 C26.9400851,8.28214054 26.904268,8.20754234 26.8676402,8.13341625 L26.9191656,8.23911635 C26.879988,8.15763918 26.839836,8.07671905 26.7987249,7.99637109 L26.8676402,8.13341625 C26.8227434,8.04255543 26.7766285,7.95240394 26.729317,7.86298312 L26.7987249,7.99637109 C26.7592219,7.91916622 26.7188333,7.84248961 26.6775725,7.76635468 L26.729317,7.86298312 C26.6899001,7.78848362 26.6496527,7.71449128 26.6085869,7.64101844 L26.6775725,7.76635468 C26.6231594,7.66595099 26.5672294,7.56648934 26.5098131,7.46800046 L26.6085869,7.64101844 C26.5590674,7.55242063 26.5083581,7.46457822 26.4564805,7.37751284 L26.5098131,7.46800046 C26.4733882,7.40551902 26.4363652,7.3434291 26.3987519,7.28173852 L26.4564805,7.37751284 C26.4067436,7.29404001 26.3559328,7.21128141 26.3040672,7.12925609 L26.3987519,7.28173852 C26.3533783,7.20732009 26.3071456,7.13348279 26.2600678,7.06024042 L26.3040672,7.12925609 C26.2517199,7.0464689 26.1982982,6.96442868 26.1438216,6.88315502 L26.2600678,7.06024042 C26.2046897,6.97408463 26.148142,6.88875203 26.0904472,6.80426505 L26.1438216,6.88315502 C26.0976554,6.81427978 26.0507318,6.74595506 26.0030624,6.67819279 L26.0904472,6.80426505 C26.0432174,6.73510272 25.9952189,6.66650706 25.9464639,6.59849038 L26.0030624,6.67819279 C25.9419281,6.59128987 25.8795674,6.50531203 25.8160054,6.42028441 L25.9464639,6.59849038 C25.8388836,6.44840799 25.7276204,6.30114455 25.6128065,6.15683223 C25.376567,5.85988799 25.1251775,5.57531866 24.8598943,5.30440741 L24.6828116,5.12761041 C24.6406142,5.08642289 24.5980869,5.04557183 24.555234,5.00506156 C24.5252496,4.97671861 24.4954493,4.94886008 24.4654947,4.92116607 L24.555234,5.00506156 C24.505256,4.95781556 24.4548351,4.9110331 24.4039783,4.86472105 L24.4654947,4.92116607 C24.394376,4.85541451 24.3223873,4.7905903 24.2495478,4.72671263 L24.4039783,4.86472105 C24.3320749,4.79924323 24.2593001,4.73470575 24.1856734,4.67112804 L24.2495478,4.72671263 C24.1869565,4.67182224 24.1237369,4.61763078 24.0599014,4.56415044 L24.1856734,4.67112804 C24.0911845,4.58953549 23.9952924,4.50952368 23.8980382,4.43113369 L24.0599014,4.56415044 C23.9881071,4.50400247 23.9155337,4.44475398 23.8421984,4.38642233 L23.8980382,4.43113369 C23.83622,4.38130628 23.7738516,4.33213413 23.7109433,4.2836278 L23.8421984,4.38642233 C23.7708513,4.32967218 23.6987832,4.27378983 23.6260099,4.21879122 L23.7109433,4.2836278 C23.6490286,4.2358875 23.586591,4.18879216 23.5236406,4.14235184 L23.6260099,4.21879122 C23.5402141,4.15395087 23.4534382,4.09033886 23.3657084,4.02798136 L23.5236406,4.14235184 C23.4507104,4.08854917 23.377092,4.03562567 23.302801,3.98359697 L23.3657084,4.02798136 C23.2968013,3.9790028 23.2273056,3.93079818 23.1572341,3.88338019 L23.302801,3.98359697 C23.2231513,3.92781543 23.1427285,3.87306244 23.0615518,3.81935727 L23.1572341,3.88338019 C23.0817348,3.8322892 23.0055671,3.78211142 22.9287467,3.73286269 L23.0615518,3.81935727 C22.9827451,3.76722008 22.903228,3.71607042 22.8230179,3.66592593 L22.9287467,3.73286269 C22.837415,3.67431092 22.7451608,3.61707235 22.6520108,3.56117363 L22.8230179,3.66592593 C22.7496575,3.62006354 22.6757174,3.57504198 22.6012113,3.53087475 L22.6520108,3.56117363 C22.5808703,3.51848274 22.5092074,3.47657335 22.4370338,3.43545731 L22.6012113,3.53087475 C22.5140724,3.47921881 22.4261591,3.42873145 22.3374932,3.37943428 L22.4370338,3.43545731 C22.1626941,3.27917075 21.8809764,3.13434701 21.5925325,3.00163799 L21.344265,2.89112857 C21.2900589,2.8678027 21.2356278,2.84490006 21.1809759,2.82242482 C21.1439705,2.80720762 21.1071039,2.79228203 21.0701385,2.77755114 L21.1809759,2.82242482 C21.1225559,2.7984 21.0638835,2.77486356 21.0049639,2.75182056 L21.0701385,2.77755114 C20.9803398,2.74176582 20.8899586,2.70712948 20.7990131,2.67366028 L21.0049639,2.75182056 C20.9217079,2.71925985 20.8379582,2.68768439 20.753729,2.65710854 L20.7990131,2.67366028 C20.7064463,2.63959438 20.6132948,2.60673761 20.519578,2.57510912 L20.753729,2.65710854 C20.666283,2.62536495 20.5783203,2.59469877 20.4898568,2.56512605 L20.519578,2.57510912 C20.434146,2.54627667 20.3482441,2.51846494 20.2618869,2.49168842 L20.4898568,2.56512605 C20.3786796,2.52796027 20.2667114,2.49252153 20.1539843,2.45884169 L20.2618869,2.49168842 C20.1773766,2.4654846 20.0924303,2.44027219 20.0070615,2.41606478 L20.1539843,2.45884169 C20.0599028,2.43073265 19.9652925,2.40384877 19.8701721,2.37820855 L20.0070615,2.41606478 C19.9129027,2.38936486 19.8182299,2.36388756 19.7230614,2.33965112 L19.8701721,2.37820855 C19.7844292,2.35509609 19.6982717,2.33299417 19.6117132,2.31191635 L19.7230614,2.33965112 C19.6302064,2.31600388 19.5368796,2.29353791 19.4430978,2.27227014 L19.6117132,2.31191635 C19.5096952,2.28707399 19.4071202,2.26365422 19.3040104,2.24167923 L19.4430978,2.27227014 C19.3603014,2.25349364 19.2771503,2.23565107 19.1936563,2.21875411 L19.3040104,2.24167923 C19.2063043,2.22085591 19.108118,2.2013299 19.0094704,2.1831201 L19.1936563,2.21875411 C19.0944567,2.19867875 18.9947731,2.1799382 18.8946248,2.16255199 L19.0094704,2.1831201 C18.9274315,2.16797618 18.8450735,2.15374258 18.7624073,2.14043015 L18.8946248,2.16255199 C18.7811741,2.14285643 18.6671272,2.1248989 18.5525125,2.10870783 L18.7624073,2.14043015 C18.6646577,2.12468872 18.5664772,2.11023531 18.4678837,2.09708787 L18.5525125,2.10870783 C18.4688901,2.09689488 18.3849653,2.08602224 18.3007494,2.07610094 L18.4678837,2.09708787 C18.3704736,2.08409823 18.2726604,2.07238341 18.1744614,2.06196074 L18.3007494,2.07610094 C18.1882341,2.06284576 18.0751991,2.05128873 17.9616705,2.04145617 L18.1744614,2.06196074 C18.076249,2.05153663 17.9776507,2.04240502 17.8786838,2.03458324 L17.9616705,2.04145617 C17.8778619,2.03419762 17.7937844,2.02787884 17.7094486,2.02251043 L17.8786838,2.03458324 C17.7804806,2.02682182 17.6819146,2.02035008 17.5830025,2.01518498 L17.2884075,2.0037074 L17,2 Z" id="Combined-Shape"></path>
            </g>
        </g>
    </g>
</svg>