<?xml version="1.0" encoding="UTF-8"?>
<svg width="32px" height="32px" viewBox="0 0 32 32" version="1.1" xmlns="http://www.w3.org/2000/svg" xmlns:xlink="http://www.w3.org/1999/xlink">
    <title>52EFA52D-2B95-431D-B83D-F0B85E9FE2FE</title>
    <g id="Styles" stroke="none" stroke-width="1" fill="none" fill-rule="evenodd">
        <g id="Styles-Iconos" transform="translate(-528.000000, -592.000000)" fill="#121237">
            <g id="icon/40/Ayuda-Copy-26" transform="translate(528.000000, 592.000000)">
                <path d="M8.49597857,3.21114793 L30.8939891,14.4101532 C31.8819461,14.9041317 32.2823948,16.1054778 31.7884163,17.0934348 C31.5948889,17.4804896 31.2810439,17.7943345 30.8939891,17.9878619 L8.49597857,29.1868672 C7.50802158,29.6808457 6.3066755,29.280397 5.812697,28.29244 C5.59129998,27.849646 5.54199497,27.3404751 5.67432024,26.8634288 L8.35504459,17.199 L23.4716978,17.1990076 L23.588319,17.1922798 C24.0856577,17.1345147 24.4716978,16.7118434 24.4716978,16.1990076 C24.4716978,15.6467228 24.0239826,15.1990076 23.4716978,15.1990076 L23.4716978,15.1990076 L8.35504459,15.199 L5.67432024,5.53458638 C5.37907761,4.47020601 6.00258695,3.36801379 7.06696732,3.07277117 C7.54401369,2.9404459 8.05318452,2.9897509 8.49597857,3.21114793 Z" id="Combined-Shape"></path>
            </g>
        </g>
    </g>
</svg>